<?xml version="1.0" encoding="utf-8"?>
<!-- Generator: Adobe Illustrator 25.4.0, SVG Export Plug-In . SVG Version: 6.00 Build 0)  -->
<svg version="1.1" id="b03325a2-9f0d-4349-a23d-136e09983e20"
	 xmlns="http://www.w3.org/2000/svg" xmlns:xlink="http://www.w3.org/1999/xlink" x="0px" y="0px" viewBox="0 0 992.4 519"
	 style="enable-background:new 0 0 992.4 519;" xml:space="preserve">
<style type="text/css">
	.st0{fill:#F1F1F1;}
	.st1{fill:#CBCBCB;}
	.st2{fill:#0394E8;}
	.st3{fill:#3F3D56;}
	.st4{fill:#FFB7B7;}
	.st5{fill:#2F2E41;}
</style>
<path class="st0" d="M76.6,491.6c-15.6,8.4-22.4,26.3-22.4,26.3s18.7,4.2,34.3-4.2c15.6-8.4,22.4-26.3,22.4-26.3
	S92.2,483.1,76.6,491.6z"/>
<path class="st0" d="M81.7,497.4c-9.2,15.2-27.4,21.1-27.4,21.1s-3.3-18.8,5.8-34.1s27.4-21.1,27.4-21.1S90.9,482.1,81.7,497.4z"/>
<rect x="488.8" y="11.4" class="st1" width="450.8" height="2"/>
<rect x="549.2" y="12.2" class="st1" width="2" height="63.6"/>
<polygon class="st1" points="715.2,126.1 612.2,126.1 612.2,12.1 614.2,12.1 614.2,124.1 715.2,124.1 "/>
<rect x="679.9" y="12.2" class="st1" width="2" height="63.6"/>
<rect x="713.4" y="125.2" class="st1" width="2" height="63.6"/>
<rect x="817" y="12.2" class="st1" width="2" height="63.6"/>
<rect x="885.6" y="12.2" class="st1" width="2" height="63.6"/>
<rect x="531.4" y="85.5" class="st2" width="38" height="14.8"/>
<rect x="661.4" y="85.5" class="st3" width="38" height="14.8"/>
<rect x="799.4" y="85.5" class="st1" width="38" height="14.8"/>
<rect x="865.4" y="85.5" class="st2" width="38" height="14.8"/>
<rect x="954.4" y="5.5" class="st3" width="38" height="14.8"/>
<rect x="695.4" y="197.5" class="st3" width="38" height="14.8"/>
<rect x="415" class="st2" width="60.9" height="23.7"/>
<polygon class="st4" points="282.5,241.2 286.5,277 337.3,277.9 331.1,235 "/>
<path class="st4" d="M259.6,320.9c2.9-3.5,2.4-8.7-1-11.6c-0.4-0.3-0.8-0.6-1.2-0.8l2.4-18.6l-11-4.2l-3,26.3c-2,4.1-0.3,9,3.8,11
	C253,324.8,257.2,323.9,259.6,320.9z"/>
<polygon class="st4" points="352,507.4 362.7,507.4 367.8,466 352,466 "/>
<path class="st5" d="M349.2,503.9l21.1,0h0c7.4,0,13.5,6,13.5,13.5v0.4l-34.6,0L349.2,503.9z"/>
<polygon class="st4" points="229.4,507.4 240.1,507.4 245.2,466 229.4,466 "/>
<path class="st5" d="M226.6,503.9l21.1,0h0c7.4,0,13.5,6,13.5,13.5v0.4l-34.6,0L226.6,503.9z"/>
<path class="st2" d="M244.8,306.4l4.7-54.6l13.8-49.9c2.1-7.5,8.6-12.9,16.3-13.7l0.4,0l2.4,37.5l-17.6,36.2l-5.8,43.4L244.8,306.4z
	"/>
<path class="st5" d="M285.7,256.2l-7.2,13c0,0-28.2,28.5-30.4,72.6l-26.2,149.9l24.3-0.6l49.1-140.5l34.8,59.6l17.4,77.9L375,483
	l-12.3-90.5L339,308.3l-2.4-45.8L285.7,256.2z"/>
<circle class="st4" cx="310.7" cy="148.6" r="21.5"/>
<path class="st5" d="M225.8,197.4c4-7.8,5.4-16.7,8.4-24.9c3.1-8.2,8.7-16.4,17.1-18.6c4.8-1.3,9.9-0.5,14.9-1.1
	c4.3-0.5,9-2.8,10.7-6.6c-0.3-3.8,0.1-7.7,1.4-11.3c3.1-8.8,10.5-15.7,19.1-19.3c7-2.9,15-3.7,22.2-1.2s13.1,8.7,14.4,16.2
	c1.3,7.5-2.8,15.8-9.9,18.5c-5.1,1.9-11.7,1.3-15,5.6c-3.4,4.4-1,10.7,2.1,15.3l-0.2,0.2c-10,0.1-20.8-1.8-27.7-9.1
	c-0.7-0.8-1.4-1.6-2.1-2.5c-0.2,0.3-0.4,0.7-0.7,1c-3.5,4.6-8.9,7.2-14.1,9.8c-5.2,2.5-10.5,5.4-13.6,10.3
	c-5.6,8.8-1.9,20.6-5.1,30.5c-3.8,11.8-16.5,18.3-28.4,14.5c-6.4-2.1-11.5-6.9-14-13.1C214.1,212.1,221.8,205.2,225.8,197.4z"/>
<path class="st4" d="M363.6,320.2c1-4.4-1.8-8.8-6.3-9.8c-0.5-0.1-1-0.2-1.4-0.2l-6.5-17.6l-11.7,1.4l9.6,24.7
	c0.1,4.6,3.9,8.2,8.5,8C359.5,326.7,362.8,324,363.6,320.2L363.6,320.2z"/>
<path class="st2" d="M282.2,261.4l-6.2-29.9l-2-22.8c-1.1-12.9,2.5-25.8,10.2-36.3l2-2.7l33.5,11.9l16.3,21.5
	c10,10,2.2,19.6,1.1,20.9l-0.3,30.3l-0.4,0.1L282.2,261.4z"/>
<path class="st2" d="M343.9,314L319,256.6l-3.6-52.6l-0.7-11.1c-0.4-5.8,4-10.9,9.8-11.2c5.5-0.4,10.4,3.6,11.2,9.1l7.8,58.6
	l13.5,58.5L343.9,314z"/>
<path class="st1" d="M538,518.7H1c-0.6,0-1-0.4-1-1c0-0.6,0.4-1,1-1h537c0.6,0,1,0.4,1,1C539,518.3,538.6,518.7,538,518.7z"/>
</svg>
